{"title":"Ecstasy.2011.DivX-1080p.ETC1337","uid":6462683,"size":3874473062,"categoryP":"video","categoryS":"hd___movies","magnet":"?xt=urn:btih:c6d949df39cd8bc4374ece17fd27b3748d72d663&amp;dn=Ecstasy.2011.DivX-1080p.ETC1337&amp;tr=udp%3A%2F%2Ftracker.openbittorrent.com%3A80&amp;tr=udp%3A%2F%2Fopen.demonii.com%3A1337&amp;tr=udp%3A%2F%2Ftracker.coppersurfer.tk%3A6969&amp;tr=udp%3A%2F%2Fexodus.desync.com%3A6969","seeders":0,"leechers":0,"uploader":"ETC1337","files":-1,"time":1307833800,"description":"    ................ETC1337 Proudly Present's Ecstasy 2011 by LUX................\n\n\n                     h t t p :/ /w w w . ecstasyfilm . c o m /\n\n\n\n\n\n93 minutes/ Drama/ English/ 5.1 Dolby\n\nA single church-going mother desperately tries to save her two daughters from walking down the same dark path she was once on; and a young woman fights against addiction to a mysterious party drug.\nStarring: Charlie Bewley, Gillian Zinser\nDirected by: Lux\n\n1080p \n\n\nFormat                           : DivX\nFormat/Info                      : Hack of AVI\nFile size                        : 3.61 GiB\nDuration                         : 1h 35mn\nOverall bit rate                 : 5 383 Kbps\n\nVideo\nID                               : 0\nFormat                           : MPEG-4 Visual\nFormat settings, BVOP            : Yes\nFormat settings, QPel            : No\nFormat settings, GMC             : No warppoints\nFormat settings, Matrix          : Default (H.263)\nCodec ID                         : DX50\nCodec ID/Hint                    : DivX 5\nDuration                         : 1h 35mn\nBit rate                         : 5 246 Kbps\nWidth                            : 1 280 pixels\nHeight                           : 544 pixels\nDisplay aspect ratio             : 2.35:1\nFrame rate                       : 23.976 fps\nColor space                      : YUV\nChroma subsampling               : 4:2:0\nBit depth                        : 8 bits\nScan type                        : Progressive\nCompression mode                 : Lossy\nBits/(Pixel*Frame)               : 0.314\nStream size                      : 3.52 GiB (97%)\nWriting library                  : DivX 2682\n\nAudio\nID                               : 1\nFormat                           : MPEG Audio\nFormat version                   : Version 1\nFormat profile                   : Layer 3\nMode                             : Joint stereo\nMode extension                   : MS Stereo\nCodec ID                         : 55\nCodec ID/Hint                    : MP3\nDuration                         : 1h 35mn\nBit rate mode                    : Constant\nBit rate                         : 128 Kbps\nChannel(s)                       : 2 channels\nSampling rate                    : 44.1 KHz\nCompression mode                 : Lossy\nStream size                      : 87.9 MiB (2%)\nAlignment                        : Split accross interleaves\nInterleave, duration             : 42 ms (1.00 video frame)\nInterleave, preload duration     : 500 ms\nTitle                            : Audio\n\n\nPlease SEED, comment and Enjoy!\n\n\n&lt;a class=&quot;__cf_email__&quot; href=&quot;/cdn-cgi/l/email-protection&quot; data-cfemail=&quot;1e5b4a5d2f2d2d295e79737f7772307d7173&quot;&gt;[email&amp;#160;protected]&lt;/a&gt;&lt;script cf-hash='f9e31' type=&quot;text/javascript&quot;&gt;\n/* &lt;![CDATA[ */!function(){try{var t=&quot;currentScript&quot;in document?document.currentScript:function(){for(var t=document.getElementsByTagName(&quot;script&quot;),e=t.length;e--;)if(t[e].getAttribute(&quot;cf-hash&quot;))return t[e]}();if(t&amp;&amp;t.previousSibling){var e,r,n,i,c=t.previousSibling,a=c.getAttribute(&quot;data-cfemail&quot;);if(a){for(e=&quot;&quot;,r=parseInt(a.substr(0,2),16),n=2;a.length-n;n+=2)i=parseInt(a.substr(n,2),16)^r,e+=String.fromCharCode(i);e=document.createTextNode(e),c.parentNode.replaceChild(e,c)}}}catch(u){}}();/* ]]&gt; */&lt;/script&gt;\n\n","torrent":{"xt":"urn:btih:c6d949df39cd8bc4374ece17fd27b3748d72d663","amp;dn":"Ecstasy.2011.DivX-1080p.ETC1337","amp;tr":["udp%3A%2F%2Ftracker.openbittorrent.com%3A80","udp%3A%2F%2Fopen.demonii.com%3A1337","udp%3A%2F%2Ftracker.coppersurfer.tk%3A6969","udp%3A%2F%2Fexodus.desync.com%3A6969"],"infoHash":"c6d949df39cd8bc4374ece17fd27b3748d72d663","infoHashBuffer":{"type":"Buffer","data":[198,217,73,223,57,205,139,196,55,78,206,23,253,39,179,116,141,114,214,99]},"announce":[],"urlList":[]}}